<?xml version="1.0" encoding="UTF-8" standalone="no"?>
<!-- Created with Inkscape (http://www.inkscape.org/) -->

<svg
   width="32px"
   height="32px"
   viewBox="0 0 210 297"
   version="1.1"
   id="svg1"
   inkscape:version="1.3.2 (091e20e, 2023-11-25, custom)"
   sodipodi:docname="GodotPromise.svg"
   xmlns:inkscape="http://www.inkscape.org/namespaces/inkscape"
   xmlns:sodipodi="http://sodipodi.sourceforge.net/DTD/sodipodi-0.dtd"
   xmlns="http://www.w3.org/2000/svg"
   xmlns:svg="http://www.w3.org/2000/svg">
  <sodipodi:namedview
     id="namedview1"
     pagecolor="#505050"
     bordercolor="#eeeeee"
     borderopacity="1"
     inkscape:showpageshadow="0"
     inkscape:pageopacity="0"
     inkscape:pagecheckerboard="0"
     inkscape:deskcolor="#505050"
     inkscape:document-units="mm"
     inkscape:zoom="22.435241"
     inkscape:cx="8.8031146"
     inkscape:cy="14.642143"
     inkscape:window-width="1920"
     inkscape:window-height="1001"
     inkscape:window-x="-9"
     inkscape:window-y="-9"
     inkscape:window-maximized="1"
     inkscape:current-layer="g7" />
  <defs
     id="defs1" />
  <g
     inkscape:label="Layer 1"
     inkscape:groupmode="layer"
     id="layer1">
    <g
       id="path2"
       transform="translate(3.919709e-8,21.511915)">
      <g
         id="g7">
        <path
           id="text11"
           style="font-size:99px;font-family:Calibri;-inkscape-font-specification:Calibri;fill:#ffe85f;stroke-width:18.5625;stroke-linecap:square;stroke-miterlimit:3.9;paint-order:stroke fill markers"
           d="m 116.84067,102.0451 q 0,4.68897 -1.54688,8.45948 -1.54687,3.77051 -4.44726,6.4292 -2.85205,2.65869 -7.05762,4.10888 -4.157227,1.4502 -9.958008,1.4502 h -7.105957 v 22.52637 q 0,0.38671 -0.241699,0.67675 -0.19336,0.29004 -0.676758,0.4834 -0.435059,0.14502 -1.256836,0.2417 -0.773437,0.14502 -1.981933,0.14502 -1.208497,0 -2.030274,-0.14502 -0.773437,-0.0967 -1.256836,-0.2417 -0.483398,-0.19336 -0.676758,-0.4834 -0.193359,-0.29004 -0.193359,-0.67675 V 87.301453 q 0,-1.933594 1.015137,-2.755371 1.015136,-0.821778 2.271972,-0.821778 h 13.390137 q 2.030273,0 3.867188,0.19336 1.885254,0.145019 4.398924,0.725097 2.56201,0.531739 5.17236,2.078614 2.6587,1.498535 4.49561,3.722167 1.83691,2.223633 2.80371,5.172364 1.01514,2.90039 1.01514,6.429194 z m -8.74951,0.67676 q 0,-3.818845 -1.4502,-6.380857 -1.40185,-2.562011 -3.52881,-3.818847 -2.07861,-1.256836 -4.350584,-1.595215 -2.223633,-0.338379 -4.350586,-0.338379 h -7.686035 v 25.088378 h 7.492676 q 3.770508,0 6.235839,-0.9668 2.51367,-0.96679 4.20557,-2.65869 1.69189,-1.74023 2.56201,-4.10888 0.87012,-2.417 0.87012,-5.22071 z M 15.652344,59.638672 -2.0332031,65.277344 0.78710937,74.119141 42.21875,204.05664 l 2.818359,8.84375 17.685547,-5.63867 -2.820312,-8.84375 L 18.470703,68.480469 Z M 175.40806,126.98809 a 9.28125,9.28125 0 0 0 -6.5625,2.71874 9.28125,9.28125 0 0 0 0,13.12696 l 49.125,49.12304 -49.125,49.12501 a 9.28125,9.28125 0 0 0 0,13.12696 9.28125,9.28125 0 0 0 13.125,0 l 62.25,-62.25196 -62.25,-62.25 a 9.28125,9.28125 0 0 0 -6.5625,-2.71875 z M 41.779156,182.67558 v 18.5625 h 9.28125 175.394534 9.28125 v -18.5625 h -9.28125 -94.7213 -80.673234 z m 9.283875,-34.56104 c -24.218266,-0.001 -43.851305,19.63202 -43.850281,43.85029 -10e-4,24.21826 19.632017,43.8513 43.850281,43.85027 24.218263,0.001 43.851299,-19.63202 43.850279,-43.85027 0.001,-24.21827 -19.632014,-43.85131 -43.850279,-43.85029 z M 133.97656,-2.949415 a 9.28125,9.28125 0 0 0 -6.5625,2.71875 9.28125,9.28125 0 0 0 0,13.126953 l 49.125,49.123047 -49.125,49.125005 a 9.28125,9.28125 0 0 0 0,13.12695 9.28125,9.28125 0 0 0 13.125,0 l 62.25,-62.251955 -62.25,-62.25 a 9.28125,9.28125 0 0 0 -6.5625,-2.71875 z M 0.3476562,52.738085 v 18.5625 h 9.2812501 175.3945337 9.28125 v -18.5625 H 185.02344 90.302142 9.6289063 Z M 9.6315307,18.177037 C -14.586735,18.176014 -34.219774,37.809052 -34.21875,62.027318 -34.21975,86.245582 -14.586733,105.87862 9.6315307,105.8776 33.849794,105.87862 53.482833,86.245582 53.481812,62.027318 53.482836,37.809052 33.849796,18.176013 9.6315307,18.177037 Z" />
      </g>
    </g>
  </g>
</svg>
