<?xml version="1.0" encoding="UTF-8" standalone="no"?>
<!-- Created with Inkscape (http://www.inkscape.org/) -->

<svg
   width="32px"
   height="32px"
   viewBox="0 0 210 297"
   version="1.1"
   id="svg1"
   inkscape:version="1.3.2 (091e20e, 2023-11-25, custom)"
   sodipodi:docname="GodotPromiseEx.svg"
   xmlns:inkscape="http://www.inkscape.org/namespaces/inkscape"
   xmlns:sodipodi="http://sodipodi.sourceforge.net/DTD/sodipodi-0.dtd"
   xmlns="http://www.w3.org/2000/svg"
   xmlns:svg="http://www.w3.org/2000/svg">
  <sodipodi:namedview
     id="namedview1"
     pagecolor="#505050"
     bordercolor="#eeeeee"
     borderopacity="1"
     inkscape:showpageshadow="0"
     inkscape:pageopacity="0"
     inkscape:pagecheckerboard="0"
     inkscape:deskcolor="#505050"
     inkscape:document-units="mm"
     inkscape:zoom="44.870482"
     inkscape:cx="15.255018"
     inkscape:cy="13.293818"
     inkscape:window-width="1920"
     inkscape:window-height="1001"
     inkscape:window-x="-9"
     inkscape:window-y="-9"
     inkscape:window-maximized="1"
     inkscape:current-layer="g7" />
  <defs
     id="defs1" />
  <g
     inkscape:label="Layer 1"
     inkscape:groupmode="layer"
     id="layer1">
    <g
       id="path2"
       transform="translate(3.919709e-8,21.511915)">
      <g
         id="g7">
        <path
           id="text1"
           style="font-size:99.0003px;font-family:Calibri;-inkscape-font-specification:Calibri;fill:#ffe85f;stroke-width:18.5625;stroke-linecap:square;stroke-miterlimit:3.9;paint-order:stroke fill markers"
           d="m 86.209495,142.25983 q 0,0.87012 -0.09668,1.54688 -0.09668,0.62842 -0.338379,1.06348 -0.2417,0.43506 -0.58008,0.62842 -0.29004,0.19336 -0.67676,0.19336 H 54.498463 q -1.11182,0 -2.12696,-0.7251 -0.9668,-0.77344 -0.9668,-2.6587 V 86.523824 q 0,-1.885259 0.9668,-2.610359 1.01514,-0.77344 2.12696,-0.77344 h 29.680753 q 0.38672,0 0.67676,0.19336 0.33838,0.19336 0.53174,0.62842 0.19336,0.43506 0.29004,1.11182 0.14502,0.628419 0.14502,1.595219 0,0.87012 -0.14502,1.54688 -0.09668,0.62842 -0.29004,1.06348 -0.19336,0.38672 -0.53174,0.580079 -0.29004,0.19336 -0.67676,0.19336 H 59.719181 v 19.626037 h 20.979556 q 0.38672,0 0.67676,0.2417 0.338379,0.19336 0.531739,0.58008 0.2417,0.38672 0.33838,1.06348 0.09668,0.67676 0.09668,1.59522 0,0.87012 -0.09668,1.49854 -0.09668,0.62842 -0.33838,1.01514 -0.19336,0.38672 -0.531739,0.58008 -0.29004,0.14502 -0.67676,0.14502 H 59.719181 v 22.38141 h 24.798415 q 0.38672,0 0.67676,0.19336 0.33838,0.19336 0.58008,0.62842 0.241699,0.38672 0.338379,1.06348 0.09668,0.62842 0.09668,1.59522 z m 45.584605,1.30518 q 0.38672,0.67676 0.38672,1.16016 0,0.43506 -0.4834,0.7251 -0.43506,0.29004 -1.40185,0.38672 -0.91846,0.14502 -2.417,0.14502 -1.4502,0 -2.32032,-0.0967 -0.82178,-0.0483 -1.35352,-0.19336 -0.4834,-0.19336 -0.77344,-0.43506 -0.2417,-0.29004 -0.43506,-0.62842 l -10.44144,-17.25738 -10.3931,17.25738 q -0.19336,0.33838 -0.4834,0.62842 -0.2417,0.2417 -0.77344,0.43506 -0.4834,0.14502 -1.305178,0.19336 -0.82178,0.0967 -2.175299,0.0967 -1.40186,0 -2.32032,-0.14502 -0.87012,-0.0967 -1.30518,-0.38672 -0.38672,-0.29004 -0.38672,-0.7251 0.04834,-0.4834 0.4834,-1.16016 L 107.43075,122.34376 94.620653,101.89594 q -0.38672,-0.67676 -0.43506,-1.11182 0,-0.4834 0.43506,-0.77344 0.4834,-0.338379 1.40186,-0.435059 0.9668,-0.09668 2.513679,-0.09668 1.40186,0 2.223638,0.09668 0.87012,0.04834 1.35352,0.19336 0.4834,0.14502 0.7251,0.386719 0.2417,0.2417 0.43506,0.58008 l 9.9097,16.1939 10.05472,-16.1939 q 0.19336,-0.29004 0.43506,-0.53174 0.2417,-0.241699 0.62842,-0.386719 0.43506,-0.19336 1.16016,-0.2417 0.77344,-0.09668 2.07862,-0.09668 1.40186,0 2.27198,0.09668 0.91846,0.09668 1.35351,0.38672 0.43506,0.241699 0.38672,0.725099 -0.0483,0.4834 -0.4834,1.2085 l -12.71341,20.20612 z M 15.652344,59.638672 -2.0332031,65.277344 0.78710937,74.119141 42.21875,204.05664 l 2.818359,8.84375 17.685547,-5.63867 -2.820312,-8.84375 L 18.470703,68.480469 Z M 175.40806,126.98809 c -2.46147,1.7e-4 -4.82206,0.97813 -6.5625,2.71874 -3.62541,3.6247 -3.62541,9.50226 0,13.12696 l 49.125,49.12304 -49.125,49.12501 c -3.62541,3.6247 -3.62541,9.50226 0,13.12696 3.62448,3.62411 9.50052,3.62411 13.125,0 l 62.25,-62.25196 -62.25,-62.25 c -1.74044,-1.74061 -4.10103,-2.71857 -6.5625,-2.71875 z M 41.779156,182.67558 v 18.5625 h 9.28125 175.394534 9.28125 v -18.5625 h -9.28125 -94.7213 -80.673234 z m 9.283875,-34.56104 c -24.218266,-0.001 -43.851305,19.63202 -43.850281,43.85029 -10e-4,24.21826 19.632017,43.8513 43.850281,43.85027 24.218263,0.001 43.851299,-19.63202 43.850279,-43.85027 0.001,-24.21827 -19.632014,-43.85131 -43.850279,-43.85029 z M 133.97656,-2.949415 c -2.46147,1.776e-4 -4.82206,0.9781372 -6.5625,2.71875 -3.62541,3.6247003 -3.62541,9.5022527 0,13.126953 l 49.125,49.123047 -49.125,49.125005 c -3.62541,3.6247 -3.62541,9.50225 0,13.12695 3.62448,3.62411 9.50052,3.62411 13.125,0 l 62.25,-62.251955 -62.25,-62.25 c -1.74044,-1.7406128 -4.10103,-2.7185724 -6.5625,-2.71875 z M 0.3476562,52.738085 v 18.5625 h 9.2812501 175.3945337 9.28125 v -18.5625 H 185.02344 90.302142 9.6289063 Z M 9.6315307,18.177037 C -14.586735,18.176014 -34.219774,37.809052 -34.21875,62.027318 -34.21975,86.245582 -14.586733,105.87862 9.6315307,105.8776 33.849794,105.87862 53.482833,86.245582 53.481812,62.027318 53.482836,37.809052 33.849796,18.176013 9.6315307,18.177037 Z" />
      </g>
    </g>
  </g>
</svg>
